<svg xmlns="http://www.w3.org/2000/svg" xmlns:xlink="http://www.w3.org/1999/xlink" viewBox="0 0 2840.83 573.65"><defs><style>.cls-1{fill:url(#linear-gradient);}.cls-2{fill:none;stroke-width:5px;}.cls-2,.cls-4{stroke:#000;stroke-miterlimit:10;}.cls-3{fill:url(#linear-gradient-10);}.cls-4{stroke-width:20px;fill:url(#linear-gradient-11);}.cls-5{fill:url(#linear-gradient-12);}.cls-6{fill:#fff;fill-opacity:0.3;}</style><linearGradient id="linear-gradient" x1="906.69" y1="377.23" x2="2856.07" y2="377.23" gradientUnits="userSpaceOnUse"><stop offset="0"/><stop offset="1"/></linearGradient><linearGradient id="linear-gradient-10" x1="129.59" y1="400" x2="703.24" y2="400" gradientUnits="userSpaceOnUse"><stop offset="0" stop-color="#dfbedd"/><stop offset="1" stop-color="#e1b2b2"/></linearGradient><linearGradient id="linear-gradient-11" x1="470.65" y1="470.65" x2="103" y2="103" gradientUnits="userSpaceOnUse"><stop offset="0" stop-color="#fff"/><stop offset="1" stop-color="#fff"/></linearGradient><linearGradient id="linear-gradient-12" x1="227.78" y1="390.16" x2="585.35" y2="390.16" gradientUnits="userSpaceOnUse"><stop offset="0" stop-color="#93278f"/><stop offset="0.08" stop-color="#9b2686"/><stop offset="1" stop-color="#ed1c24"/></linearGradient></defs><title>Hovenient for website</title><g id="Logo_Layer" data-name="Logo Layer"><g id="HV_Layer" data-name="HV Layer"><path class="cls-1" d="M1113.8,289.71c-24.57,2.1-27,3.59-27,28.47V439.27c0,25.18,2.4,26.68,26.67,28.48v8.39h-80.32v-8.39c25.77-1.8,28.17-3.3,28.17-28.48V379.63H959.14v59.64c0,24.88,2.4,26.68,27,28.48v8.39H907.29v-8.39c24-1.8,26.38-3.3,26.38-28.48V318.18c0-25.18-2.4-26.67-27-28.47v-8.39h77.63v8.39c-22.78,1.8-25.18,3.59-25.18,28.47v48.56h102.21V318.18c0-24.88-2.4-26.37-25.77-28.47v-8.39h78.22Z" transform="translate(-129.59 -113.17)"/><path class="cls-1" d="M1362,376.33c0,64.74-45.26,104.3-100.11,104.3-54.25,0-97.41-42-97.41-99.8,0-54,37.77-104,101-104C1316.12,276.82,1362,316.08,1362,376.33ZM1195,372.43c0,56.35,30.87,97.41,73.13,97.41,33.57,0,63.24-27.87,63.24-85.42,0-63.24-33-96.81-72.53-96.81C1225.6,287.61,1195,316.08,1195,372.43Z" transform="translate(-129.59 -113.17)"/><path class="cls-1" d="M1606,289.71c-20.39,2.4-24.28,5.09-35.67,31.77-8.09,19.78-39.57,95.91-62.35,158h-9.29c-20.08-54.85-44.66-119.9-62-163.36-8.69-22.18-13.49-24.57-31.47-26.37v-8.39h73.43v8.39c-21.28,2.1-22.18,4.49-17.38,17.68,7.49,21.28,29.37,79.43,49.75,131h.6c15-37.76,37.77-96.21,47.36-126.18,5.69-17.39,3.9-19.48-20.38-22.48v-8.39H1606Z" transform="translate(-129.59 -113.17)"/><path class="cls-1" d="M1804.36,428.78c-1.8,9.89-7.8,38.07-10.49,47.36H1649.4v-8.39c27.27-2.1,29.67-4.5,29.67-29.08V319.38c0-26.67-2.4-27.87-25.78-29.67v-8.39H1787c0,7.49,1.5,27.87,2.4,43.16l-8.69,1.2c-2.7-12.59-5.7-19.19-9.59-25.48-4.2-6.6-12.29-8.69-33.87-8.69h-22.78c-9.29,0-9.89.9-9.89,9.59v68.34h28.17c27.28,0,28.78-2.4,32.37-22.48h8.69V404.2h-8.69c-3.89-21.28-6-23.07-32.07-23.07h-28.47v56.64c0,14.09,1.79,20.69,7.19,24.28,5.69,3.9,16.18,3.9,31.17,3.9,22.78,0,31.17-2.4,37.77-10.19,5.09-6,10.79-16.49,15-28.18Z" transform="translate(-129.59 -113.17)"/><path class="cls-1" d="M2056.42,289.71c-16.78.9-24,4.79-25.18,17.68-1.2,9.29-1.79,22.78-1.79,50.66V478.84h-9.3L1892.47,321.78h-.6V397c0,27.58.9,42,1.8,50.66,1.5,15.28,8.39,18.88,28.77,20.08v8.39h-71v-8.39c17.08-.9,24.87-4.8,26.37-19.49.9-9.29,1.8-24,1.8-51.25V331.07c0-21.88-.6-23.38-6-30.27-6.3-7.5-12.59-9.89-26.68-11.09v-8.39H1891l125.29,150.46h.9V358.05c0-27.88-.9-41.37-2.1-49.76-1.5-13.79-8.39-17.68-29.38-18.58v-8.39h70.74Z" transform="translate(-129.59 -113.17)"/><path class="cls-1" d="M2105,476.14v-8.39c24.58-1.8,27-3.6,27-29.08V318.78c0-25.48-2.4-27.27-27-29.07v-8.39h79.43v8.39c-24.58,1.8-27,3.59-27,29.07V438.67c0,25.78,2.4,27.28,27,29.08v8.39Z" transform="translate(-129.59 -113.17)"/><path class="cls-1" d="M2389.41,428.78c-1.8,9.89-7.8,38.07-10.49,47.36H2234.45v-8.39c27.27-2.1,29.67-4.5,29.67-29.08V319.38c0-26.67-2.4-27.87-25.78-29.67v-8.39H2372c0,7.49,1.5,27.87,2.4,43.16l-8.69,1.2c-2.7-12.59-5.7-19.19-9.59-25.48-4.2-6.6-12.29-8.69-33.87-8.69h-22.78c-9.29,0-9.89.9-9.89,9.59v68.34h28.17c27.28,0,28.77-2.4,32.37-22.48h8.69V404.2h-8.69c-3.89-21.28-6-23.07-32.07-23.07H2289.6v56.64c0,14.09,1.79,20.69,7.19,24.28,5.69,3.9,16.18,3.9,31.17,3.9,22.78,0,31.17-2.4,37.77-10.19,5.09-6,10.79-16.49,15-28.18Z" transform="translate(-129.59 -113.17)"/><path class="cls-1" d="M2641.47,289.71c-16.78.9-24,4.79-25.18,17.68-1.2,9.29-1.79,22.78-1.79,50.66V478.84h-9.3L2477.52,321.78h-.6V397c0,27.58.9,42,1.8,50.66,1.5,15.28,8.39,18.88,28.77,20.08v8.39h-71v-8.39c17.08-.9,24.87-4.8,26.37-19.49.9-9.29,1.8-24,1.8-51.25V331.07c0-21.88-.6-23.38-6-30.27-6.3-7.5-12.59-9.89-26.68-11.09v-8.39H2476l125.29,150.46h.9V358.05c0-27.88-.9-41.37-2.1-49.76-1.5-13.79-8.39-17.68-29.38-18.58v-8.39h70.74Z" transform="translate(-129.59 -113.17)"/><path class="cls-1" d="M2847.08,327.77c-3-14.38-6-21.88-9.29-26.67-5.1-7.2-9.9-9.59-32.67-9.59h-21V439.27c0,23.68,2.4,26.68,30.58,28.48v8.39H2729v-8.39c27.28-1.8,29.68-4.8,29.68-28.48V291.51h-18.59c-24.87,0-30.87,2.69-34.76,9.29-3.6,5.09-6,13.79-9.6,27H2687c1.5-18,3-37.46,3.6-53.95h6c4.2,6.9,8.1,7.5,16.49,7.5h118.39c8.09,0,10.49-1.8,15-7.5h6.29c.3,13.79,1.5,35.67,3.3,53.05Z" transform="translate(-129.59 -113.17)"/><line class="cls-2" x1="688.83" y1="102.79" x2="2840.83" y2="102.79"/><line class="cls-2" x1="688.83" y1="427.98" x2="2840.83" y2="427.98"/><path id="Outer" class="cls-3" d="M416.41,686.83a286.83,286.83,0,1,1,202.82-84A285,285,0,0,1,416.41,686.83Z" transform="translate(-129.59 -113.17)"/><circle id="Circle" class="cls-4" cx="286.83" cy="286.83" r="259.97"/><path d="M419.8,545.83a29.19,29.19,0,0,1-29.15-29.16V441.76a9.73,9.73,0,0,0-9.72-9.72h-62.4a9.73,9.73,0,0,0-9.73,9.72v74.91a29.19,29.19,0,0,1-29.15,29.16H257.19A29.19,29.19,0,0,1,228,516.67V283.59a29.18,29.18,0,0,1,29.15-29.15h22.46a29.18,29.18,0,0,1,29.15,29.15v65.63a9.73,9.73,0,0,0,9.73,9.72h62.4a9.73,9.73,0,0,0,9.72-9.72V283.59a29.18,29.18,0,0,1,29.15-29.15h22.46a29.18,29.18,0,0,1,29.15,29.15V443.13l52.73-168A29.27,29.27,0,0,1,552,254.44h23.83a29.15,29.15,0,0,1,27.62,38.45L525,526a29.12,29.12,0,0,1-27.62,19.85Z" transform="translate(-129.59 -113.17)"/><path class="cls-5" d="M451.73,526.14H409.84A19.44,19.44,0,0,1,390.4,506.7V431.79A19.44,19.44,0,0,0,371,412.35h-62.4a19.44,19.44,0,0,0-19.44,19.44V506.7a19.44,19.44,0,0,1-19.44,19.44H247.22a19.45,19.45,0,0,1-19.44-19.44V273.61a19.45,19.45,0,0,1,19.44-19.44h22.46a19.44,19.44,0,0,1,19.44,19.44v65.63a19.44,19.44,0,0,0,19.44,19.44H371a19.44,19.44,0,0,0,19.44-19.44V273.61a19.44,19.44,0,0,1,19.44-19.44h22.45a19.44,19.44,0,0,1,19.44,19.44Zm9.44,0h26.22a19.44,19.44,0,0,0,18.42-13.24l78.5-233.08a19.44,19.44,0,0,0-18.42-25.65H542.06a19.44,19.44,0,0,0-18.62,13.88L461.17,466.47v59.67Z" transform="translate(-129.59 -113.17)"/><path class="cls-6" d="M467,520.31V467.36L529,269.8a13.72,13.72,0,0,1,13.06-9.8h23.83a13.61,13.61,0,0,1,12.9,18L500.29,511a13.6,13.6,0,0,1-12.9,9.27Zm-57.16,0a13.62,13.62,0,0,1-13.61-13.61V431.79A25.3,25.3,0,0,0,371,406.52h-62.4a25.3,25.3,0,0,0-25.27,25.27V506.7a13.62,13.62,0,0,1-13.61,13.61H247.22a13.63,13.63,0,0,1-13.61-13.61V273.61A13.63,13.63,0,0,1,247.22,260h22.46a13.62,13.62,0,0,1,13.61,13.61v65.63a25.3,25.3,0,0,0,25.27,25.27H371a25.3,25.3,0,0,0,25.27-25.27V273.61A13.62,13.62,0,0,1,409.84,260h22.45a13.63,13.63,0,0,1,13.62,13.61v246.7Z" transform="translate(-129.59 -113.17)"/></g></g></svg>