<svg xmlns="http://www.w3.org/2000/svg" xmlns:xlink="http://www.w3.org/1999/xlink" viewBox="0 0 573.65 573.65"><defs><style>.cls-1{fill:url(#linear-gradient);}.cls-2{stroke:#000;stroke-miterlimit:10;stroke-width:20px;fill:url(#linear-gradient-2);}.cls-3{fill:url(#linear-gradient-3);}.cls-4{fill:#fff;fill-opacity:0.3;}</style><linearGradient id="linear-gradient" x1="113.17" y1="400" x2="686.83" y2="400" gradientUnits="userSpaceOnUse"><stop offset="0" stop-color="#dfbedd"/><stop offset="1" stop-color="#e1b2b2"/></linearGradient><linearGradient id="linear-gradient-2" x1="470.65" y1="470.65" x2="103" y2="103" gradientUnits="userSpaceOnUse"><stop offset="0" stop-color="#fff"/><stop offset="1" stop-color="#fff"/></linearGradient><linearGradient id="linear-gradient-3" x1="211.37" y1="390.16" x2="568.93" y2="390.16" gradientUnits="userSpaceOnUse"><stop offset="0" stop-color="#93278f"/><stop offset="0.08" stop-color="#9b2686"/><stop offset="1" stop-color="#ed1c24"/></linearGradient></defs><title>Hovenient Logo Only Color</title><g id="Logo_Layer" data-name="Logo Layer"><g id="HV_Layer" data-name="HV Layer"><path id="Outer" class="cls-1" d="M400,686.83a286.83,286.83,0,1,1,202.82-84A285,285,0,0,1,400,686.83Z" transform="translate(-113.17 -113.17)"/><circle id="Circle" class="cls-2" cx="286.83" cy="286.83" r="259.97"/><path d="M403.39,545.83a29.19,29.19,0,0,1-29.15-29.16V441.76a9.73,9.73,0,0,0-9.73-9.72h-62.4a9.73,9.73,0,0,0-9.72,9.72v74.91a29.19,29.19,0,0,1-29.16,29.16H240.78a29.18,29.18,0,0,1-29.15-29.16V283.59a29.17,29.17,0,0,1,29.15-29.15h22.45a29.18,29.18,0,0,1,29.16,29.15v65.63a9.73,9.73,0,0,0,9.72,9.72h62.4a9.73,9.73,0,0,0,9.73-9.72V283.59a29.18,29.18,0,0,1,29.15-29.15h22.46A29.18,29.18,0,0,1,455,283.59V443.13l52.72-168a29.29,29.29,0,0,1,27.9-20.68h23.83a29.15,29.15,0,0,1,27.62,38.45L508.57,526a29.14,29.14,0,0,1-27.63,19.85Z" transform="translate(-113.17 -113.17)"/><path class="cls-3" d="M435.32,526.14H393.43A19.44,19.44,0,0,1,374,506.7V431.79a19.44,19.44,0,0,0-19.44-19.44h-62.4a19.44,19.44,0,0,0-19.44,19.44V506.7a19.45,19.45,0,0,1-19.44,19.44H230.81a19.44,19.44,0,0,1-19.44-19.44V273.61a19.44,19.44,0,0,1,19.44-19.44h22.46a19.45,19.45,0,0,1,19.44,19.44v65.63a19.44,19.44,0,0,0,19.44,19.44h62.4A19.44,19.44,0,0,0,374,339.24V273.61a19.44,19.44,0,0,1,19.44-19.44h22.45a19.44,19.44,0,0,1,19.44,19.44Zm9.44,0H471A19.45,19.45,0,0,0,489.4,512.9l78.5-233.08a19.45,19.45,0,0,0-18.42-25.65H525.65A19.46,19.46,0,0,0,507,268.05L444.76,466.47v59.67Z" transform="translate(-113.17 -113.17)"/><path class="cls-4" d="M450.59,520.31V467.36l62-197.56a13.74,13.74,0,0,1,13.07-9.8h23.83a13.62,13.62,0,0,1,12.9,18L483.88,511a13.6,13.6,0,0,1-12.9,9.27Zm-57.16,0a13.63,13.63,0,0,1-13.62-13.61V431.79a25.3,25.3,0,0,0-25.26-25.27h-62.4a25.3,25.3,0,0,0-25.27,25.27V506.7a13.63,13.63,0,0,1-13.61,13.61H230.81A13.63,13.63,0,0,1,217.2,506.7V273.61A13.63,13.63,0,0,1,230.81,260h22.46a13.63,13.63,0,0,1,13.61,13.61v65.63a25.3,25.3,0,0,0,25.27,25.27h62.4a25.3,25.3,0,0,0,25.26-25.27V273.61A13.63,13.63,0,0,1,393.43,260h22.45a13.62,13.62,0,0,1,13.61,13.61v246.7Z" transform="translate(-113.17 -113.17)"/></g></g></svg>